<?xml version="1.0" standalone="no"?>
<!DOCTYPE svg PUBLIC "-//W3C//DTD SVG 20010904//EN"
 "http://www.w3.org/TR/2001/REC-SVG-20010904/DTD/svg10.dtd">
<svg version="1.0" xmlns="http://www.w3.org/2000/svg"
 width="512.000000pt" height="512.000000pt" viewBox="0 0 512.000000 512.000000"
 preserveAspectRatio="xMidYMid meet">
<metadata>
Created by potrace 1.14, written by Peter Selinger 2001-2017
</metadata>
<g transform="translate(0.000000,512.000000) scale(0.100000,-0.100000)"
fill="#000000" stroke="none">
<path d="M2115 4861 c-155 -44 -281 -162 -329 -307 -21 -64 -30 -187 -18 -240
13 -56 -5 -96 -49 -114 -162 -63 -243 -107 -329 -179 -162 -136 -262 -292
-314 -492 -14 -52 -27 -119 -29 -149 l-4 -55 -64 -13 c-35 -7 -73 -14 -84 -16
-102 -19 -338 -84 -400 -111 -16 -7 -50 -21 -75 -31 -24 -11 -72 -36 -105 -58
-204 -130 -206 -298 -4 -431 37 -25 72 -45 76 -45 4 0 21 -7 37 -15 114 -60
409 -137 681 -179 55 -9 111 -18 125 -20 14 -3 33 -5 43 -5 29 -2 19 -21 -42
-80 -82 -79 -106 -133 -105 -241 0 -74 4 -93 29 -144 64 -128 211 -198 354
-167 66 14 87 4 131 -61 38 -55 113 -127 174 -165 50 -32 161 -79 206 -88 69
-14 222 -13 284 2 238 55 433 256 481 494 9 41 18 84 20 97 7 31 65 55 99 42
14 -5 40 -33 59 -63 70 -108 177 -193 303 -239 88 -32 253 -31 349 1 39 13 77
29 85 35 8 7 28 18 44 26 47 24 151 136 186 201 52 99 65 152 65 282 0 99 -11
88 105 107 348 58 631 156 763 264 24 20 56 59 72 87 23 43 27 59 22 100 -13
108 -91 186 -262 264 -117 54 -404 135 -560 159 -38 6 -83 14 -115 21 -14 3
-45 7 -70 10 -75 9 -92 15 -130 45 -20 16 -49 32 -64 36 -28 7 -56 39 -60 71
-2 10 6 42 17 73 133 378 -31 796 -384 978 -71 37 -101 48 -199 74 -65 17
-247 18 -322 2 -113 -24 -120 -22 -174 48 -68 89 -138 143 -232 178 -78 29
-207 34 -287 11z m1005 -541 c0 -79 0 -80 -25 -80 -89 0 -214 -65 -282 -146
-53 -63 -89 -155 -92 -231 -1 -22 -5 -23 -82 -23 l-81 0 6 61 c21 190 137 353
312 439 44 22 101 43 125 46 24 3 45 7 47 8 1 2 18 3 37 4 l35 1 0 -79z
m-1284 -610 c-8 -69 -54 -165 -105 -222 -51 -57 -162 -115 -238 -124 l-53 -6
0 79 0 80 50 11 c107 25 182 112 189 220 1 8 24 12 82 12 l81 0 -6 -50z m570
-469 c121 -57 213 -180 229 -308 l7 -53 -81 0 c-68 0 -81 3 -81 16 0 47 -28
103 -75 150 -43 43 -61 54 -108 64 l-57 13 0 78 0 79 53 -5 c28 -3 79 -18 113
-34z m1614 -71 c84 -13 109 -18 189 -36 36 -8 77 -17 91 -20 39 -8 201 -55
245 -71 145 -54 255 -127 255 -168 0 -50 -194 -149 -395 -201 -16 -4 -32 -8
-35 -9 -39 -10 -199 -46 -245 -55 l-60 -12 -38 -71 c-21 -40 -37 -80 -37 -89
0 -10 -6 -18 -12 -18 -7 0 -44 -5 -83 -10 -38 -6 -88 -12 -110 -15 -22 -3 -56
-7 -75 -10 -72 -9 -171 -19 -315 -31 -44 -3 -96 -8 -115 -9 -312 -27 -1083
-27 -1435 0 -22 2 -76 6 -120 10 -44 3 -105 8 -135 10 -60 5 -118 11 -195 22
-27 3 -60 6 -72 7 -13 0 -24 4 -24 8 -1 4 -3 13 -4 18 -1 6 -3 14 -4 18 0 5
-12 22 -27 38 -14 16 -31 43 -39 61 -14 32 -30 38 -155 58 -19 3 -42 8 -50 10
-8 2 -31 6 -51 9 -81 12 -350 86 -439 121 -131 52 -210 105 -210 141 0 25 52
72 117 107 62 32 212 90 266 102 12 2 67 16 122 30 55 14 111 27 125 29 14 2
41 7 60 10 l35 6 23 -97 c22 -97 50 -166 107 -273 26 -47 30 -66 30 -132 0
-42 2 -79 5 -81 5 -5 39 -11 133 -22 23 -3 58 -8 77 -10 19 -3 56 -7 83 -10
26 -3 66 -7 90 -9 138 -15 207 -20 422 -33 176 -11 957 -10 1125 1 74 5 153
10 175 11 23 1 65 5 95 8 30 4 82 9 115 12 64 6 81 8 215 25 81 10 141 19 185
26 11 2 43 6 70 10 75 9 80 18 80 132 -1 87 -4 104 -31 162 -17 36 -56 93 -88
128 -61 68 -62 71 -45 138 9 34 15 43 28 40 9 -3 45 -10 81 -16z m-736 -966
c9 -47 73 -111 120 -120 l36 -6 0 -80 0 -80 -47 7 c-133 18 -249 133 -268 268
l-7 47 80 0 80 0 6 -36z m-649 -106 c-8 -69 -40 -174 -61 -199 -8 -8 -14 -20
-14 -25 0 -13 -58 -82 -110 -132 -77 -73 -240 -140 -342 -142 l-28 0 0 78 0
79 66 12 c85 15 137 40 201 97 73 63 129 178 132 272 1 21 5 22 82 22 l81 0
-7 -62z"/>
<path d="M2881 1736 c-111 -229 -313 -386 -566 -442 -48 -10 -216 -13 -265 -4
-25 4 -64 11 -86 15 l-42 7 29 -108 c16 -60 43 -163 60 -229 26 -98 36 -124
58 -140 33 -25 101 -95 101 -105 0 -4 26 -13 58 -20 43 -9 68 -9 98 -1 21 6
53 11 69 11 17 0 46 11 66 24 20 14 58 31 85 39 44 13 52 20 82 73 69 123 146
178 252 178 75 0 128 -23 182 -78 l33 -34 42 162 c24 88 65 244 91 346 l49
185 -50 17 c-93 33 -194 89 -250 138 l-55 50 -41 -84z"/>
<path d="M2817 846 c-34 -32 -77 -113 -77 -143 0 -29 -47 -63 -89 -63 -52 0
-81 -12 -126 -51 -34 -30 -43 -33 -105 -33 -39 -1 -74 -7 -83 -14 -25 -21 -57
-22 -96 -3 -20 10 -58 19 -86 20 -62 3 -81 13 -101 54 -40 79 -106 118 -167
98 -38 -13 -77 -51 -101 -98 -20 -41 -37 -49 -109 -56 -70 -7 -96 -22 -136
-81 -45 -64 -87 -70 -143 -18 -24 22 -31 24 -52 14 -45 -20 -76 -120 -62 -197
l7 -35 1368 0 c1202 0 1374 2 1419 15 127 38 92 126 -55 141 -42 4 -70 1 -103
-11 -102 -38 -141 -27 -160 47 -17 69 -38 108 -64 120 -21 9 -29 7 -56 -16
-38 -31 -57 -30 -132 8 -55 28 -58 31 -78 95 -37 114 -97 169 -169 156 -26 -5
-50 -21 -86 -60 -61 -65 -93 -74 -134 -39 -16 13 -32 36 -35 50 -11 42 -54
102 -85 119 -44 22 -66 19 -104 -19z"/>
</g>
</svg>
